<svg id="visual" viewBox="0 0 900 600" width="900" height="600" xmlns="http://www.w3.org/2000/svg" xmlns:xlink="http://www.w3.org/1999/xlink" version="1.1"><rect x="0" y="0" width="900" height="600" fill="#12372A"></rect><path d="M0 247L82 248L164 236L245 191L327 251L409 247L491 153L573 173L655 172L736 194L818 206L900 223L900 601L818 601L736 601L655 601L573 601L491 601L409 601L327 601L245 601L164 601L82 601L0 601Z" fill="#12372a"></path><path d="M0 294L82 217L164 219L245 275L327 314L409 300L491 243L573 304L655 252L736 294L818 218L900 284L900 601L818 601L736 601L655 601L573 601L491 601L409 601L327 601L245 601L164 601L82 601L0 601Z" fill="#4f6c56"></path><path d="M0 336L82 278L164 361L245 328L327 319L409 291L491 342L573 292L655 319L736 319L818 305L900 316L900 601L818 601L736 601L655 601L573 601L491 601L409 601L327 601L245 601L164 601L82 601L0 601Z" fill="#91a489"></path><path d="M0 372L82 357L164 403L245 353L327 351L409 357L491 380L573 347L655 374L736 324L818 343L900 377L900 601L818 601L736 601L655 601L573 601L491 601L409 601L327 601L245 601L164 601L82 601L0 601Z" fill="#adbc9f"></path><path d="M0 442L82 448L164 398L245 397L327 392L409 415L491 434L573 442L655 396L736 406L818 402L900 407L900 601L818 601L736 601L655 601L573 601L491 601L409 601L327 601L245 601L164 601L82 601L0 601Z" fill="#91a489"></path><path d="M0 491L82 473L164 453L245 461L327 492L409 461L491 471L573 469L655 473L736 470L818 480L900 471L900 601L818 601L736 601L655 601L573 601L491 601L409 601L327 601L245 601L164 601L82 601L0 601Z" fill="#4f6c56"></path><path d="M0 522L82 512L164 531L245 539L327 542L409 513L491 504L573 526L655 532L736 538L818 531L900 532L900 601L818 601L736 601L655 601L573 601L491 601L409 601L327 601L245 601L164 601L82 601L0 601Z" fill="#12372a"></path></svg>