<svg id="visual" viewBox="0 0 900 600" width="900" height="600" xmlns="http://www.w3.org/2000/svg" xmlns:xlink="http://www.w3.org/1999/xlink" version="1.1"><rect x="0" y="0" width="900" height="600" fill="#12372A"></rect><path d="M0 167L16.7 189C33.3 211 66.7 255 100 273C133.3 291 166.7 283 200 291C233.3 299 266.7 323 300 335.3C333.3 347.7 366.7 348.3 400 324.7C433.3 301 466.7 253 500 215C533.3 177 566.7 149 600 156.7C633.3 164.3 666.7 207.7 700 235.3C733.3 263 766.7 275 800 284.7C833.3 294.3 866.7 301.7 883.3 305.3L900 309" fill="none" stroke-linecap="round" stroke-linejoin="miter" stroke="#436850" stroke-width="28"></path></svg>